<svg xmlns="http://www.w3.org/2000/svg" viewBox="0 0 162 30"><defs><style>.cls-1{}</style></defs><g id="Layer_2" data-name="Layer 2"><g id="Layer_1-2" data-name="Layer 1"><path class="cls-1" d="M0,0V11.63l10.36-1.5L15,.73l4.64,9.4L30,11.63l-7.5,7.31,1.77,10.33L15,24.39,5.73,29.27,7.5,18.94,0,11.63V30H162V11.63l-7.5,7.31,1.77,10.33L147,24.39l-9.27,4.88,1.77-10.33L132,11.63l10.36-1.5L147,.73l4.64,9.4L162,11.63V0ZM57.27,29.27,48,24.39l-9.27,4.88L40.5,18.94,33,11.63l10.36-1.5L48,.73l4.64,9.4L63,11.63l-7.5,7.31Zm33,0L81,24.39l-9.27,4.88L73.5,18.94,66,11.63l10.36-1.5L81,.73l4.64,9.4L96,11.63l-7.5,7.31Zm33,0L114,24.39l-9.27,4.88,1.77-10.33L99,11.63l10.36-1.5L114,.73l4.64,9.4L129,11.63l-7.5,7.31Z"/></g></g></svg>